HIERARCHY
ROOT pelvis
{
  OFFSET 0 100 0
  CHANNELS 6 Xposition Yposition Zposition Zrotation Xrotation Yrotation
  JOINT pelvis_right_femur
  {
    OFFSET -10.78128 -3.44521 -0.5502486
    CHANNELS 3 Zrotation Xrotation Yrotation
    JOINT right_femur_tibia
    {
      OFFSET -0.8047443 -44.0398 -0.1307829
      CHANNELS 3 Zrotation Xrotation Yrotation
      JOINT right_tibia_foot
      {
        OFFSET 3.006224 -47.83518 -5
        CHANNELS 3 Zrotation Xrotation Yrotation
        End Site
        {
          OFFSET 0 -5 15
        }
      }
    }
  }
  JOINT pelvis_left_femur
  {
    OFFSET 10.78128 -3.44521 -0.5502486
    CHANNELS 3 Zrotation Xrotation Yrotation
    JOINT left_femur_tibia
    {
      OFFSET 0.8047443 -44.0398 -0.1307829
      CHANNELS 3 Zrotation Xrotation Yrotation
      JOINT left_tibia_foot
      {
        OFFSET -4.370144 -48.10324 -4.275266
        CHANNELS 3 Zrotation Xrotation Yrotation
        End Site
        {
          OFFSET 0 -5 15
        }
      }
    }
  }
  JOINT pelvis_spine1
  {
    OFFSET 0 6.468898 -3.129235
    CHANNELS 3 Zrotation Xrotation Yrotation
    JOINT spine1
    {
      OFFSET 0 23.15396 4.99043
      CHANNELS 3 Zrotation Xrotation Yrotation
      JOINT spine2
      {
        OFFSET 0 20.79997 -5.064912
        CHANNELS 3 Zrotation Xrotation Yrotation
        JOINT neck
        {
          OFFSET 0 14.38658 9.616178
          CHANNELS 3 Zrotation Xrotation Yrotation
          End Site
          {
            OFFSET 0 20 0
          }
        }
      }
      JOINT right_manubrium
      {
        OFFSET -5.722621 16.35077 3.967754
        CHANNELS 3 Zrotation Xrotation Yrotation
        JOINT right_clavicle
        {
          OFFSET -13.16364 1.694482 -4.693211
          CHANNELS 3 Zrotation Xrotation Yrotation
          JOINT right_humerus
          {
            OFFSET -28.5034 -0.3100689 -2.792744
            CHANNELS 3 Zrotation Xrotation Yrotation
            JOINT right_radius
            {
              OFFSET -25.15693 0.02248979 -1.271978
              CHANNELS 3 Zrotation Xrotation Yrotation
              End Site
              {
                OFFSET -15 0 0
              }
            }
          }
        }
      }
      JOINT left_manubrium
      {
        OFFSET 5.722621 16.35077 3.967754
        CHANNELS 3 Zrotation Xrotation Yrotation
        JOINT left_clavicle
        {
          OFFSET 13.16364 1.694482 -4.693211
          CHANNELS 3 Zrotation Xrotation Yrotation
          JOINT left_humerus
          {
            OFFSET 29.39168 -1.063119 -2.237045
            CHANNELS 3 Zrotation Xrotation Yrotation
            JOINT left_radius
            {
              OFFSET 24.59957 -0.9528479 0.9047498
              CHANNELS 3 Zrotation Xrotation Yrotation
              End Site
              {
                OFFSET 15 -0 -0
              }
            }
          }
        }
      }
    }
  }
}
MOTION
Frames: 7
Frame Time: 0.0416666666667
0 103.5113 0 2.859977 -2.247256 0.2770555 0.4442713 -9.629571 7.6377 -0 35.89128 -0 -4.530402 -19.21551 -3.411421 -8.277534 11.63871 -23.85382 -0 4.433073 -0 8.163232 -15.50834 25.78805 -2.202392 -3.386262 4.969682 2.82345 10.31947 -7.846953 1.527438 21.63435 6.177961 2.605582 -26.02851 9.769174 6.606602 -18.63286 10.85975 86.78349 34.70801 -21.61211 -0 0 13.77452 -5.79577 8.253965 2.445653 6.625713 -21.56411 -1.484176 -95.43953 26.32103 23.81303 0 0 -14.99103 10.06085 16.98888 3.116349
0.2322197 103.4333 1.284713 1.900007 -1.4027 0.3369753 1.949563 -13.24691 8.669993 -0 37.52517 -0 -4.684454 -18.4085 -3.84909 -7.655238 11.58087 -23.66913 -0 4.438682 -0 7.257005 -16.7063 26.09106 -2.269961 -3.408428 4.946647 2.850475 10.33068 -7.898437 1.48784 21.6507 6.180501 2.577074 -26.03524 9.741464 6.590614 -18.67997 10.88457 86.85627 34.75098 -21.68129 -0 0 13.78761 -5.82214 8.188128 2.50179 6.596202 -21.59365 -1.502738 -95.36204 26.40136 23.78315 0 0 -15.1681 9.938599 16.91402 3.23949
0.4943385 101.921 4.911398 0.9871316 -4.742756 0.4672637 1.274525 -21.75893 -3.706134 -0 19.82312 -0 -11.57632 -4.416539 0.7914309 -6.344096 13.63526 -15.70603 -0 7.320302 -0 4.586562 -19.77127 19.31267 -1.805666 -1.651255 6.015113 1.883148 10.92615 -6.878077 1.250306 21.63617 5.293907 2.615966 -23.04634 7.353036 5.348534 -18.62 11.37598 85.4629 35.17662 -17.35528 -0 0 13.8674 -11.52201 10.28594 6.615651 5.622187 -20.82064 -1.568515 -92.55506 23.3941 21.86135 0 0 -15.257 8.227187 13.24902 4.433136
0.759162 100.8948 8.195385 0.7545935 -2.705186 0.5030742 2.505146 -23.95627 -0.4811723 -0 22.09901 -0 -10.07125 -6.797327 0.05289665 -6.536857 13.21581 -17.15541 -0 6.474129 -0 7.058184 -19.32424 21.2102 -1.616077 -1.286384 6.102706 1.715195 11.04942 -6.719627 1.29266 21.57109 5.179546 2.72412 -22.45304 7.005525 5.18122 -18.36934 11.43213 85.44544 34.76212 -17.02995 -0 0 13.60711 -12.44371 10.74512 7.150238 5.528722 -20.67316 -1.741929 -92.04871 22.86025 21.2067 0 0 -15.30592 7.845198 12.57404 4.751333
1.060359 100.0428 11.2984 0.1967525 0.06470583 0.5618102 4.598085 -28.1891 3.211142 -0 22.69106 -0 -8.052785 -7.54866 -0.6123248 -6.638669 12.69231 -18.10334 -0 6.271852 -0 9.735588 -19.30617 23.17904 -1.687681 -1.233411 6.032733 1.733797 11.14683 -6.899785 1.144134 21.42816 5.424995 2.912616 -22.88229 6.980487 5.234412 -18.41912 11.475 86.10786 35.22041 -17.85658 -0 0 13.02488 -12.82727 10.5423 7.49424 5.357845 -20.95794 -2.225795 -91.86062 23.76514 21.5349 0 0 -16.82641 7.094706 11.86725 6.183736
1.359992 98.99501 14.71516 0.01933351 0.5993684 0.7148614 4.918173 -30.37976 2.68663 -0 19.66992 -0 -8.040227 -5.722867 -0.2555132 -6.565197 13.12712 -17.18366 -0 6.968149 -0 9.930345 -19.6558 22.53368 -1.709158 -1.126443 6.057975 1.662304 11.20769 -6.909966 1.069072 21.3691 5.51491 3.012055 -22.79079 6.846778 5.169894 -18.44542 11.53786 86.24306 35.27265 -17.89346 -0 0 12.91468 -13.52701 10.65416 7.957734 5.268519 -21.01147 -2.404103 -91.5947 23.87521 21.47833 0 0 -17.36909 6.616047 11.3485 6.874014
1.652682 97.88163 18.60653 -0.1215053 1.018128 0.9625003 5.051172 -32.35208 1.800262 -0 15.98975 -0 -8.074925 -3.467166 0.1063391 -6.458185 13.85212 -15.93712 -0 8.130565 -0 9.596472 -19.97831 21.35239 -1.79003 -1.026157 6.079856 1.527437 11.22488 -6.927968 0.9280604 21.30629 5.774414 3.206775 -22.81014 6.752012 5.121713 -18.57346 11.61158 86.45673 35.66995 -17.98875 -0 0 12.79456 -14.65218 10.79449 8.691849 5.129535 -21.12622 -2.67138 -91.36683 24.45095 21.72606 0 0 -18.35124 5.708406 10.7228 8.316708
